<!DOCTYPE svg PUBLIC "-//W3C//DTD SVG 20010904//EN" "http://www.w3.org/TR/2001/REC-SVG-20010904/DTD/svg10.dtd">
<svg version="1.0" xmlns="http://www.w3.org/2000/svg" width="132px" height="126px" viewBox="0 0 1320 1260" preserveAspectRatio="xMidYMid meet">
<g id="layer101" fill="#ffffff" stroke="none">
 <path d="M356 1191 c-34 -34 -67 -61 -72 -61 -6 0 -28 18 -49 40 -21 22 -46 40 -55 40 -20 0 -130 -111 -130 -131 0 -8 18 -33 40 -54 22 -21 40 -43 40 -49 0 -5 -27 -37 -60 -72 -67 -69 -73 -92 -34 -130 19 -20 31 -24 52 -19 34 8 410 380 419 413 8 32 -26 76 -61 80 -21 3 -39 -9 -90 -57z"/>
 <path d="M630 1143 c-24 -8 -501 -485 -511 -511 -6 -15 -5 -31 2 -45 16 -29 28 -37 64 -37 26 0 64 33 279 249 226 226 249 252 248 282 -1 46 -41 76 -82 62z"/>
 <path d="M522 737 l-72 -72 108 -108 107 -107 73 73 72 72 -108 108 -107 107 -73 -73z"/>
 <path d="M796 461 c-226 -226 -249 -252 -248 -282 1 -41 22 -62 62 -62 28 0 61 29 277 244 134 134 249 254 254 267 6 15 5 31 -2 45 -16 29 -28 37 -64 37 -26 0 -64 -33 -279 -249z"/>
 <path d="M1155 500 c-36 -15 -405 -395 -405 -417 0 -11 9 -32 21 -47 33 -42 62 -34 133 34 35 33 67 60 72 60 6 0 28 -18 49 -40 21 -22 46 -40 54 -40 20 0 131 110 131 130 0 9 -18 34 -40 55 -22 21 -40 43 -40 49 0 5 27 37 60 72 66 69 73 92 35 129 -25 26 -38 29 -70 15z"/>
 </g>

</svg>